<?xml version="1.0" encoding="iso-8859-1"?>
<!-- Generator: Adobe Illustrator 19.0.0, SVG Export Plug-In . SVG Version: 6.00 Build 0)  -->
<svg version="1.1" id="Layer_1" xmlns="http://www.w3.org/2000/svg" xmlns:xlink="http://www.w3.org/1999/xlink" x="0px" y="0px"
	 viewBox="0 0 512.001 512.001" style="enable-background:new 0 0 512.001 512.001;" xml:space="preserve">
<path style="fill:#36A9E1;" d="M503.089,512H8.259l0,0c0-106.077,85.993-192.069,192.069-192.069h110.691
	C417.096,319.93,503.089,405.923,503.089,512L503.089,512z"/>
<path style="fill:#297FA9;" d="M311.019,319.93c106.077,0,192.069,85.992,192.069,192.069l0,0H256.076l0.273-192.07h54.67V319.93z"
	/>
<path style="fill:#F9B233;" d="M392.4,135.864h-74.099c-3.38,0-6.12-2.74-6.12-6.12V15.819h4.464
	c41.838,0,75.754,33.916,75.754,75.754v44.291H392.4z"/>
<path style="fill:#BB8526;" d="M270.271,455.979h-27.843c-1.151,0-2.084-0.933-2.084-2.084v-35.846c0-1.151,0.934-2.084,2.084-2.084
	h27.843c1.151,0,2.084,0.934,2.084,2.084v35.846C272.355,455.047,271.422,455.979,270.271,455.979z"/>
<g>
	<polyline style="fill:#F9B233;" points="272.355,423.968 352.385,399.96 344.382,431.971 352.385,463.983 272.355,447.977 	"/>
	<polyline style="fill:#F9B233;" points="240.343,423.968 160.315,399.96 168.318,431.971 160.315,463.983 240.343,447.977 	"/>
</g>
<path style="fill:#BB8526;" d="M312.37,15.819h-0.189v73.054c0,25.952,21.038,46.989,46.989,46.989h33.228v-24.009h-32.012
	C360.388,111.855,311.898,116.718,312.37,15.819z"/>
<path style="fill:#F9B233;" d="M111.818,135.864L111.818,135.864c0-70.719,57.328-128.047,128.046-128.047h40.546
	c17.651,0,31.959,14.308,31.959,31.959l0,0c0,46.597-42.236,93.011-88.732,96.089H111.818"/>
<path style="fill:#BB8526;" d="M312.37,7.816v26.137c0,56.283-45.627,101.91-101.91,101.91h-98.642v-26.138h96.514
	C208.331,109.726,299.124,119.911,312.37,7.816"/>
<path style="fill:#F3D1BB;" d="M359.17,135.864c-14.066,0-26.653-6.212-35.265-16.006h-58.77
	c-15.81,10.084-34.534,16.006-54.676,16.006h-74.154v144.052c0,66.298,53.745,120.044,120.043,120.044
	s120.044-53.746,120.044-120.044V135.864H359.17z"/>
<path style="fill:#E8C0A8;" d="M384.395,175.878c13.26,0,24.009,10.749,24.009,24.009c0,13.26-10.749,24.009-24.009,24.009"/>
<path style="fill:#F3D1BB;" d="M128.303,223.895c-13.26,0-24.009-10.749-24.009-24.009c0-13.26,10.749-24.009,24.009-24.009"/>
<path style="fill:#E8C0A8;" d="M359.17,135.864c-25.952,0-46.989-21.039-46.989-46.989v-33.04h-2.228
	c-6.625,30.248-26.68,55.403-53.605,69.024V399.96c66.299,0,120.044-53.746,120.044-120.044V135.864H359.17z"/>
<g>
	<rect x="199.819" y="183.884" style="fill:#1D1D1B;" width="15.633" height="48.014"/>
	<rect x="295.846" y="183.884" style="fill:#1D1D1B;" width="15.633" height="48.014"/>
	<path style="fill:#1D1D1B;" d="M255.65,295.736c-13.136,0-23.822-10.687-23.822-23.822h15.633c0,4.516,3.674,8.19,8.19,8.19
		c4.516,0,8.19-3.674,8.19-8.19h15.633C279.472,285.049,268.786,295.736,255.65,295.736z"/>
</g>
<g>
	<rect x="183.623" y="184.071" style="fill:#F9B233;" width="40.02" height="15.633"/>
	<rect x="287.665" y="136.047" style="fill:#F9B233;" width="40.02" height="15.633"/>
</g>
<g>
	<rect x="280.359" y="328.123" style="fill:#1D1D1B;" width="16.006" height="15.633"/>
	<path style="fill:#1D1D1B;" d="M471.177,391.516c-24.029-31.763-57.567-55.974-95.054-68.773
		c4.776-13.396,7.386-27.812,7.386-42.827v-48.203h0.187c17.548,0,31.825-14.277,31.825-31.825s-14.277-31.825-31.825-31.825h-0.187
		V143.68h16.705V86.735c0-43.413-35.32-78.732-78.732-78.732c-3.802,0-7.307,1.261-10.151,3.366C305.037,4.393,295.931,0,285.818,0
		h-45.953c-74.916,0-135.863,60.948-135.863,135.863v7.816h23.789v24.382h-0.187c-17.548,0-31.825,14.277-31.825,31.825
		s14.277,31.825,31.825,31.825h0.187v48.203c0,15.095,2.637,29.585,7.462,43.04C98.017,335.81,64.717,359.93,40.82,391.519
		C14.405,426.438,0.443,468.1,0.443,512h15.633c0-40.468,12.868-78.868,37.211-111.049c22.269-29.44,53.392-51.837,88.159-63.586
		c21.075,41.728,64.351,70.412,114.205,70.412c49.933,0,93.265-28.776,114.304-70.611c35.006,11.693,66.358,34.175,88.756,63.783
		c24.346,32.182,37.214,70.583,37.214,111.052h15.633C511.557,468.098,497.594,426.435,471.177,391.516z M383.697,183.694
		c8.928,0,16.192,7.264,16.192,16.192c0,8.928-7.264,16.192-16.192,16.192h-0.187v-32.385H383.697z M319.998,25.12
		c0-0.818,0.666-1.484,1.485-1.484c34.793,0,63.099,28.306,63.099,63.099v41.311h-17.169c-26.145,0-47.416-21.271-47.416-47.416
		V40.706c0.121-2.098,0.189-4.209,0.189-6.338c0-1.213-0.066-2.411-0.189-3.591V25.12H319.998z M239.865,15.633h45.953
		c9.479,0,17.315,7.081,18.548,16.226v8.364c-3.033,48.937-43.802,87.824-93.49,87.824h-90.99
		C123.927,65.381,176.195,15.633,239.865,15.633z M127.603,216.079c-8.928,0-16.192-7.264-16.192-16.192
		c0-8.928,7.264-16.192,16.192-16.192h0.187v32.385H127.603z M255.65,392.143c-61.882,0-112.227-50.345-112.227-112.228V143.679
		h67.453c40.047,0,75.127-21.653,94.166-53.86c4.463,30.425,30.728,53.86,62.372,53.86h0.464v136.236
		C367.878,341.798,317.533,392.143,255.65,392.143z"/>
	<path style="fill:#1D1D1B;" d="M274.425,415.187c-3.968-4.315-9.639-7.038-15.949-7.038h-4.254c-6.309,0-11.981,2.723-15.949,7.038
		l-88.876-26.662l10.862,43.447l-10.525,42.099l88.234-17.647c3.978,4.51,9.781,7.374,16.253,7.374h4.254
		c6.472,0,12.275-2.864,16.253-7.374l88.234,17.647l-10.524-42.099l10.861-43.447L274.425,415.187z M171.23,411.394l61.299,18.39
		c0,0.02-0.003,0.04-0.003,0.059v11.725l-61.634,12.327l5.482-21.924L171.23,411.394z M264.539,442.101
		c0,3.343-2.719,6.062-6.062,6.062h-4.254c-3.343,0-6.062-2.719-6.062-6.062v-12.257c0-3.342,2.719-6.061,6.062-6.061h4.254
		c3.343,0,6.062,2.719,6.062,6.061V442.101z M280.171,441.569v-11.725c0-0.02-0.003-0.04-0.003-0.059l61.3-18.39l-5.144,20.577
		l5.481,21.924L280.171,441.569z"/>
	<polygon style="fill:#1D1D1B;" points="407.771,512 392.138,512 392.138,455.794 384.395,455.794 384.395,440.161 407.771,440.161 
			"/>
	<polygon style="fill:#1D1D1B;" points="120.561,512 104.929,512 104.929,440.161 128.303,440.161 128.303,455.794 120.561,455.794 
			"/>
	<rect x="248.343" y="472.174" style="fill:#1D1D1B;" width="16.006" height="15.633"/>
	<rect x="248.343" y="496.186" style="fill:#1D1D1B;" width="16.006" height="15.633"/>
</g>
<g>
</g>
<g>
</g>
<g>
</g>
<g>
</g>
<g>
</g>
<g>
</g>
<g>
</g>
<g>
</g>
<g>
</g>
<g>
</g>
<g>
</g>
<g>
</g>
<g>
</g>
<g>
</g>
<g>
</g>
</svg>
